# xmcd
#
# Track frame offsets: 
#        150
#        5330
#        16775
#        35794
#        54264
#        72875
#        89525
#        98466
#        118615
#        133533
#        151818
#        171759
#        187612
#        204203
#        220279
#        238105
#        250562
#
# Disc length: 3529 seconds
#
# Revision: 0
# Processed by: cddbd v1.5.2PL0 Copyright (c) Steve Scherf et al.
# Submitted via: ExactAudioCopy v0.99pb3
#
DISCID=cc0dc711
DTITLE=Rebels of Rhythm - Chunky
DYEAR=2003
DGENRE=Hip-Hop
TTITLE0=Intro
TTITLE1=Chunky
TTITLE2=You Don't Know Me
TTITLE3=Hey! featuring Pep Love from Hieroglyphics
TTITLE4=Too Out of Control
TTITLE5=Can You Relate? featuring L-Roneous
TTITLE6=Strange
TTITLE7=Where Ya At? featruing Soldia-17
TTITLE8=Unexplainable
TTITLE9=So Cold
TTITLE10=Clownin'
TTITLE11=Thick
TTITLE12=Creepin'
TTITLE13=Sorry 'Boutcha 
TTITLE14=Ghost Town
TTITLE15=Chunky Interlude
TTITLE16=Gettin' Home
EXTD=
EXTT0=
EXTT1=
EXTT2=
EXTT3=
EXTT4=
EXTT5=
EXTT6=
EXTT7=
EXTT8=
EXTT9=
EXTT10=
EXTT11=
EXTT12=
EXTT13=
EXTT14=
EXTT15=
EXTT16=
PLAYORDER=
